Coordinates
version=1
nRows=16
nColumns=22
inDegrees=yes

Units are S.I. units (second, meters, Newtons, ...)
If the header above contains a line with 'inDegrees', this indicates whether rotational values are in degrees (yes) or radians (no).

endheader
time	pelvis_tilt	pelvis_list	pelvis_rotation	pelvis_tx	pelvis_ty	pelvis_tz	hip_flexion_r	hip_adduction_r	hip_rotation_r	knee_angle_r	ankle_angle_r	subtalar_angle_r	hip_flexion_l	hip_adduction_l	hip_rotation_l	knee_angle_l	ankle_angle_l	subtalar_angle_l	lumbar_extension	lumbar_bending	lumbar_rotation
      2.24000000	     -4.12896973	      5.09425174	    -66.00238456	      0.19477072	      0.94523658	      0.50426206	     37.79075491	      4.88756493	    -13.23529430	    -28.64935852	      2.76526777	    -14.13210550	      1.39744725	     -3.64592891	     -6.89512479	    -40.54120543	     18.36585824	     13.45643903	     -2.13113056	      3.71316912	     -1.14754663
      2.25000000	     -4.44647328	      4.92859040	    -66.49511520	      0.19702295	      0.94610494	      0.51421884	     37.46026513	      5.57344246	    -12.97100960	    -29.19066526	      3.08152671	    -14.43820533	      2.16825318	     -4.23352911	     -6.60882861	    -42.99532912	     16.45880491	     14.04245325	     -2.09405584	      4.13610390	     -1.05058706
      2.26000000	     -4.74063207	      4.81740890	    -66.93230252	      0.19921995	      0.94699628	      0.52392220	     37.11546130	      6.18701050	    -12.76410104	    -29.63338160	      3.50293722	    -14.75312841	      3.10274562	     -4.78751615	     -6.26463206	    -45.53384911	     14.49068387	     14.62408343	     -2.02638818	      4.49947408	     -0.99281495
      2.27000000	     -4.99024677	      4.76423062	    -67.32339258	      0.20134029	      0.94786975	      0.53334202	     36.76237222	      6.71422596	    -12.59379855	    -29.98772451	      4.03364070	    -15.07512684	      4.19469773	     -5.30516148	     -5.93158820	    -48.13795867	     12.54692180	     15.17016568	     -1.93951441	      4.78281590	     -0.99262135
      2.28000000	     -5.21284927	      4.75666677	    -67.67788618	      0.20339566	      0.94874855	      0.54250613	     36.39549049	      7.18644245	    -12.43395061	    -30.24722373	      4.58925758	    -15.38372547	      5.41351138	     -5.78993210	     -5.57693990	    -50.74356374	     10.66838772	     15.63547220	     -1.82907936	      5.00961798	     -0.98089190
      2.29000000	     -5.46788060	      4.70145718	    -68.00268041	      0.20535893	      0.94972001	      0.55148836	     35.93162631	      7.70022568	    -12.31291973	    -30.37307309	      5.10027325	    -15.59645161	      6.67625790	     -6.36999745	     -5.26419241	    -53.32538815	      8.95538347	     15.82712740	     -1.76761943	      5.28689122	     -0.96888643
      2.30000000	     -5.69114767	      4.69587694	    -68.30263493	      0.20724641	      0.95065132	      0.56024307	     35.48182738	      8.15967462	    -12.18070182	    -30.44838478	      5.64837688	    -15.82227949	      8.04382367	     -6.92111169	     -4.96318147	    -55.83885906	      7.44133028	     15.98568219	     -1.67592300	      5.50195398	     -0.96262159
      2.31000000	     -5.88029229	      4.73035801	    -68.58593282	      0.20907881	      0.95156069	      0.56879235	     35.03693323	      8.57362146	    -12.00742668	    -30.47584248	      6.24047028	    -16.06160670	      9.48756224	     -7.43666415	     -4.67037756	    -58.24049450	      6.20185816	     16.06376443	     -1.55959018	      5.66100914	     -0.95877907
      2.32000000	     -6.06959149	      4.69410634	    -68.88946818	      0.21079549	      0.95262835	      0.57724243	     34.47681906	      9.03653181	    -11.80089951	    -30.40626838	      6.74564792	    -16.23107116	     10.87903649	     -8.01174801	     -4.42571601	    -60.48338321	      5.24344337	     15.95460281	     -1.52739646	      5.84509415	     -0.88723414
      2.33000000	     -6.24425396	      4.64883874	    -69.20737154	      0.21242957	      0.95375026	      0.58556347	     33.87763319	      9.50208123	    -11.55233966	    -30.28319482	      7.22659881	    -16.38034687	     12.27203450	     -8.59041600	     -4.19915107	    -62.55051169	      4.58638975	     15.70750560	     -1.51748220	      6.01557059	     -0.75917440
      2.34000000	     -6.40003919	      4.60186523	    -69.53592130	      0.21399830	      0.95490490	      0.59374571	     33.25870432	      9.95464427	    -11.27669874	    -30.13383934	      7.69385420	    -16.52282730	     13.66838510	     -9.16128605	     -3.98560647	    -64.42307636	      4.22278869	     15.24786559	     -1.52056209	      6.16662171	     -0.59779002
      2.35000000	     -6.54296245	      4.51733317	    -69.90161575	      0.21545324	      0.95616485	      0.60185027	     32.56343092	     10.43742666	    -10.92221124	    -29.91715538	      8.11727139	    -16.63486061	     15.01061296	     -9.74572067	     -3.79514906	    -66.07004233	      4.14602746	     14.66287448	     -1.57623061	      6.31708326	     -0.37121893
      2.36000000	     -6.67036076	      4.41964218	    -70.29687771	      0.21682873	      0.95748492	      0.60984595	     31.82641590	     10.92253609	    -10.51752473	    -29.65512907	      8.50663582	    -16.73179659	     16.32088818	    -10.31887247	     -3.60972908	    -67.48235527	      4.31614953	     13.94531113	     -1.65955131	      6.45748958	     -0.08888094
      2.37000000	     -6.78597039	      4.31192702	    -70.72283942	      0.21810402	      0.95883223	      0.61773151	     31.05991588	     11.41355283	    -10.05468294	    -29.36275062	      8.86053114	    -16.81775424	     17.60157017	    -10.88480836	     -3.43119467	    -68.65790798	      4.68461922	     13.15212082	     -1.76539329	      6.58952868	      0.22434505
      2.38000000	     -6.88245094	      4.20724799	    -71.17723304	      0.21932011	      0.96019541	      0.62550798	     30.27272320	     11.88461717	     -9.57442985	    -29.04151411	      9.20493059	    -16.90131230	     18.85117434	    -11.41392824	     -3.24459589	    -69.58078023	      5.20682561	     12.25106493	     -1.88104595	      6.70205148	      0.60379743
      2.39000000	     -6.97026541	      4.10965495	    -71.65851472	      0.22044940	      0.96154196	      0.63316155	     29.47808723	     12.34920717	     -9.05074998	    -28.69699613	      9.50990131	    -16.98024524	     20.07845571	    -11.91591268	     -3.04789544	    -70.25712852	      5.83549820	     11.33559686	     -2.00103158	      6.80507998	      1.00122238
